# xmcd CD database file
#
# Track frame offsets:
#	187
#	6025
#	25905
#	37635
#	61677
#	79132
#	102542
#	108562
#	123570
#	142032
#	166275
#	209645
#	220992
#
# Disc length: 3271 seconds
#
# Revision: 0
# Processed by: cddbd v1.5PL3 Copyright (c) Steve Scherf et al.
# Submitted via: CDex 1.51
#
DISCID=b30cc50d
DTITLE=Space Bourgeois Theater. - エレキブラン
DYEAR=1995
DGENRE=Other
TTITLE0=試験放送 (Opening)
TTITLE1=スペースマンのテーマ
TTITLE2=ギャリーな奴
TTITLE3=ハッカ
TTITLE4=ガールフレンド
TTITLE5=お陽様とオレンジ
TTITLE6=バナナが3千本
TTITLE7=Jelly ヘヴン
TTITLE8=Fantasy of the Game
TTITLE9=空とぶごりら
TTITLE10=S.B.T 〜スペースブルジョワシアター陥落〜
TTITLE11=寝てばかり・・・
TTITLE12=虹色草原
EXTD=YEAR: 1995
EXTT0=
EXTT1=
EXTT2=
EXTT3=
EXTT4=
EXTT5=
EXTT6=
EXTT7=
EXTT8=
EXTT9=
EXTT10=
EXTT11=
EXTT12=
PLAYORDER=
